<svg width="1532.5326171875px" height="203.6px" xmlns="http://www.w3.org/2000/svg" viewBox="-516.26630859375 -26.799999999999997 1532.5326171875 203.6" style="background: rgb(255, 255, 255);" preserveAspectRatio="xMidYMid"><defs><filter id="editing-hover" x="-100%" y="-100%" width="300%" height="300%"><feFlood flood-color="#f4f4f4" result="flood"></feFlood><feComposite operator="in" in2="SourceAlpha" in="flood" result="shadow"></feComposite><feOffset dx="-4" dy="-4" in="SourceGraphic" result="offset-1"></feOffset><feOffset dx="4" dy="4" in="shadow" result="offset-2"></feOffset><feMerge><feMergeNode in="offset-2"></feMergeNode><feMergeNode in="offset-1"></feMergeNode></feMerge></filter></defs><g filter="url(#editing-hover)"><g transform="translate(-305.5249658226967, 128.94000244140625)"><path d="M47.33-77.37L47.33-77.37L47.33-77.37Q75.75-77.37 75.75-57.30L75.75-57.30L75.75-57.30Q75.75-46.28 68.67-39.67L68.67-39.67L68.67-39.67Q61.71-33.06 49.53-33.06L49.53-33.06L49.53-33.06Q43.85-33.06 39.44-36.31L39.44-36.31L39.44-36.31Q37.35-37.70 35.96-39.56L35.96-39.56L35.96-39.56Q44.43-39.56 48.89-44.72L48.89-44.72L48.89-44.72Q53.36-49.88 53.36-59.97L53.36-59.97L53.36-59.97Q53.36-70.06 43.38-70.06L43.38-70.06L40.60-70.06L40.60-70.06Q39.90-70.06 39.32-69.95L39.32-69.95L25.98 0L0.81 0L15.08-75.98L15.08-75.98Q27.49-77.14 34.68-77.26L34.68-77.26L34.68-77.26Q41.88-77.37 47.33-77.37ZM104.17-6.38L104.17-6.38L104.17-6.38Q100.57 2.32 89.09 2.32L89.09 2.32L89.09 2.32Q83.17 2.32 79.46-1.74L79.46-1.74L79.46-1.74Q76.33-5.34 76.33-8.93L76.33-8.93L76.33-8.93Q76.33-18.33 80.62-36.66L80.62-36.66L84.91-59.16L108.46-61.48L101.38-24.82L101.38-24.82Q99.41-16.24 99.41-13.22L99.41-13.22L99.41-13.22Q99.41-6.61 104.17-6.38ZM87.00-75.28L87.00-75.28L87.00-75.28Q87.00-79.81 90.77-82.24L90.77-82.24L90.77-82.24Q94.54-84.68 99.99-84.68L99.99-84.68L99.99-84.68Q105.44-84.68 108.75-82.24L108.75-82.24L108.75-82.24Q112.06-79.81 112.06-75.28L112.06-75.28L112.06-75.28Q112.06-70.76 108.40-68.44L108.40-68.44L108.40-68.44Q104.75-66.12 99.30-66.12L99.30-66.12L99.30-66.12Q93.84-66.12 90.42-68.44L90.42-68.44L90.42-68.44Q87.00-70.76 87.00-75.28ZM136.36 1.16L136.36 1.16L136.36 1.16Q130.85 0 128.01-0.52L128.01-0.52L128.01-0.52Q125.16-1.04 121.86-1.04L121.86-1.04L121.86-1.04Q118.55-1.04 115.30 0.12L115.30 0.12L115.30 0.12Q113.56-0.93 112.46-3.02L112.46-3.02L112.46-3.02Q111.36-5.10 111.36-8.35L111.36-8.35L111.36-8.35Q111.36-15.20 118.32-20.42L118.32-20.42L147.78-41.64L147.78-41.64Q139.55-43.96 132.07-43.96L132.07-43.96L132.07-43.96Q124.58-43.96 121.92-38.86L121.92-38.86L121.92-38.86Q117.97-43.50 117.97-50.81L117.97-50.81L117.97-50.81Q117.97-55.68 121.51-58.87L121.51-58.87L121.51-58.87Q125.05-62.06 132.47-62.06L132.47-62.06L132.47-62.06Q136.65-62.06 140.42-61.54L140.42-61.54L140.42-61.54Q144.19-61.02 147.55-60.55L147.55-60.55L153.82-59.62L153.82-59.62Q156.83-59.16 159.91-59.16L159.91-59.16L159.91-59.16Q162.98-59.16 165.30-60.44L165.30-60.44L165.30-60.44Q168.32-57.65 168.32-53.82L168.32-53.82L168.32-53.82Q168.32-47.79 160.89-41.53L160.89-41.53L131.54-19.60L131.54-19.60Q140.59-16.94 145.23-16.94L145.23-16.94L145.23-16.94Q154.98-16.94 159.15-21.58L159.15-21.58L159.15-21.58Q162.40-17.86 162.40-11.43L162.40-11.43L162.40-11.43Q162.40-4.99 158.22-1.33L158.22-1.33L158.22-1.33Q154.05 2.32 146.51 2.32L146.51 2.32L146.51 2.32Q141.87 2.32 136.36 1.16ZM194.82 1.16L194.82 1.16L194.82 1.16Q189.31 0 186.47-0.52L186.47-0.52L186.47-0.52Q183.63-1.04 180.32-1.04L180.32-1.04L180.32-1.04Q177.02-1.04 173.77 0.12L173.77 0.12L173.77 0.12Q172.03-0.93 170.93-3.02L170.93-3.02L170.93-3.02Q169.82-5.10 169.82-8.35L169.82-8.35L169.82-8.35Q169.82-15.20 176.78-20.42L176.78-20.42L206.25-41.64L206.25-41.64Q198.01-43.96 190.53-43.96L190.53-43.96L190.53-43.96Q183.05-43.96 180.38-38.86L180.38-38.86L180.38-38.86Q176.44-43.50 176.44-50.81L176.44-50.81L176.44-50.81Q176.44-55.68 179.97-58.87L179.97-58.87L179.97-58.87Q183.51-62.06 190.94-62.06L190.94-62.06L190.94-62.06Q195.11-62.06 198.88-61.54L198.88-61.54L198.88-61.54Q202.65-61.02 206.02-60.55L206.02-60.55L212.28-59.62L212.28-59.62Q215.30-59.16 218.37-59.16L218.37-59.16L218.37-59.16Q221.44-59.16 223.76-60.44L223.76-60.44L223.76-60.44Q226.78-57.65 226.78-53.82L226.78-53.82L226.78-53.82Q226.78-47.79 219.36-41.53L219.36-41.53L190.01-19.60L190.01-19.60Q199.06-16.94 203.70-16.94L203.70-16.94L203.70-16.94Q213.44-16.94 217.62-21.58L217.62-21.58L217.62-21.58Q220.86-17.86 220.86-11.43L220.86-11.43L220.86-11.43Q220.86-4.99 216.69-1.33L216.69-1.33L216.69-1.33Q212.51 2.32 204.97 2.32L204.97 2.32L204.97 2.32Q200.33 2.32 194.82 1.16ZM236.00-3.48L236.00-3.48L236.00-3.48Q233.28-6.50 232.06-11.25L232.06-11.25L232.06-11.25Q230.84-16.01 230.84-23.78L230.84-23.78L230.84-23.78Q230.84-31.55 233.51-38.63L233.51-38.63L233.51-38.63Q236.18-45.70 241.05-50.81L241.05-50.81L241.05-50.81Q251.02-61.48 267.50-61.48L267.50-61.48L267.50-61.48Q273.41-61.48 277.70-59.51L277.70-59.51L297.54-61.48L288.96-16.24L288.96-16.24Q288.61-14.85 288.61-12.30L288.61-12.30L288.61-12.30Q288.61-9.74 290.17-8.12L290.17-8.12L290.17-8.12Q291.74-6.50 294.06-6.26L294.06-6.26L294.06-6.26Q292.90-2.32 288.67 0L288.67 0L288.67 0Q284.43 2.32 279.68 2.32L279.68 2.32L279.68 2.32Q274.92 2.32 271.73 0.52L271.73 0.52L271.73 0.52Q268.54-1.28 267.61-4.29L267.61-4.29L267.61-4.29Q265.76-1.39 261.81 0.46L261.81 0.46L261.81 0.46Q257.87 2.32 252.59 2.32L252.59 2.32L252.59 2.32Q247.31 2.32 243.02 0.93L243.02 0.93L243.02 0.93Q238.73-0.46 236.00-3.48ZM260.48-50.58L260.48-50.58L260.48-50.58Q259.14-48.49 257.98-44.95L257.98-44.95L257.98-44.95Q256.82-41.41 254.91-31.96L254.91-31.96L254.91-31.96Q253.00-22.50 253.00-15.78L253.00-15.78L253.00-15.78Q253.00-9.05 254.04-7.08L254.04-7.08L254.04-7.08Q255.08-5.10 256.94-5.10L256.94-5.10L256.94-5.10Q260.65-5.10 263.38-8.64L263.38-8.64L263.38-8.64Q266.10-12.18 267.15-18.44L267.15-18.44L273.30-52.43L273.30-52.43Q270.86-54.52 268.02-54.52L268.02-54.52L268.02-54.52Q265.18-54.52 263.49-53.59L263.49-53.59L263.49-53.59Q261.81-52.66 260.48-50.58ZM307.17-18.79L307.17-18.79L307.17-18.79Q303.46-21.46 303.46-26.56L303.46-26.56L303.46-26.56Q303.46-29.35 304.85-31.61L304.85-31.61L304.85-31.61Q306.24-33.87 309.02-34.22L309.02-34.22L331.88-34.22L331.88-34.22Q335.70-34.22 336.86-36.54L336.86-36.54L336.86-36.54Q338.72-35.50 339.53-33.29L339.53-33.29L339.53-33.29Q340.34-31.09 340.34-28.77L340.34-28.77L340.34-28.77Q340.34-26.45 338.55-24.19L338.55-24.19L338.55-24.19Q336.75-21.92 334.08-21.69L334.08-21.69L312.85-21.69L312.85-21.69Q310.42-21.69 309.26-20.94L309.26-20.94L309.26-20.94Q308.10-20.18 307.17-18.79ZM347.19-0.58L347.19-0.58L361.80-76.56L361.80-76.56Q375.49-77.72 384.31-77.72L384.31-77.72L384.31-77.72Q393.12-77.72 398.81-76.97L398.81-76.97L398.81-76.97Q404.49-76.21 408.32-74.24L408.32-74.24L408.32-74.24Q415.98-70.53 415.98-60.32L415.98-60.32L415.98-60.32Q415.98-54.40 410.87-49.42L410.87-49.42L410.87-49.42Q406.12-44.89 400.90-43.85L400.90-43.85L400.90-43.85Q406.46-42.92 410.41-38.74L410.41-38.74L410.41-38.74Q414.58-34.34 414.58-27.49L414.58-27.49L414.58-27.49Q414.58-14.27 404.72-6.55L404.72-6.55L404.72-6.55Q394.86 1.16 375.49 1.16L375.49 1.16L375.49 1.16Q362.15 1.16 347.19-0.58ZM378.74-37.35L372.94-7.31L372.94-7.31Q373.98-7.19 374.22-7.19L374.22-7.19L375.26-7.19L375.26-7.19Q384.77-7.19 388.83-13.46L388.83-13.46L388.83-13.46Q391.85-18.33 391.85-27.26L391.85-27.26L391.85-27.26Q391.85-32.02 388.77-34.57L388.77-34.57L388.77-34.57Q385.70-37.12 378.74-37.35L378.74-37.35ZM396.37-60.20L396.37-60.20L396.37-60.20Q396.37-69.83 387.09-69.83L387.09-69.83L386.05-69.83L386.05-69.83Q385.58-69.83 384.89-69.72L384.89-69.72L380.25-45.24L381.41-45.24L381.41-45.24Q396.37-45.59 396.37-60.20ZM459.48-4.87L459.48-4.87L459.48-4.87Q453.91 2.32 440.10 2.32L440.10 2.32L440.10 2.32Q432.91 2.32 427.69-2.03L427.69-2.03L427.69-2.03Q422.47-6.38 422.47-12.64L422.47-12.64L422.47-12.64Q422.47-16.12 422.82-17.86L422.82-17.86L430.59-59.16L454.14-61.48L445.67-16.70L445.67-16.70Q445.21-14.15 445.21-12.64L445.21-12.64L445.21-12.64Q445.21-5.92 449.27-5.92L449.27-5.92L449.27-5.92Q453.79-5.92 457.04-12.06L457.04-12.06L457.04-12.06Q458.08-14.04 458.55-16.59L458.55-16.59L466.78-59.16L489.64-61.48L481.05-16.24L481.05-16.24Q480.70-14.50 480.70-12.64L480.70-12.64L480.70-12.64Q480.70-10.79 481.75-8.76L481.75-8.76L481.75-8.76Q482.79-6.73 486.16-6.26L486.16-6.26L486.16-6.26Q485.46-3.48 483.02-1.62L483.02-1.62L483.02-1.62Q477.92 2.32 472.41 2.32L472.41 2.32L472.41 2.32Q466.90 2.32 463.65 0.35L463.65 0.35L463.65 0.35Q460.40-1.62 459.48-4.87ZM532.21-32.60L532.21-32.60L532.21-32.60Q536.38-40.02 536.38-47.56L536.38-47.56L536.38-47.56Q536.38-52.55 532.79-52.55L532.79-52.55L532.79-52.55Q530.00-52.55 527.10-47.79L527.10-47.79L527.10-47.79Q524.09-43.04 523.16-36.89L523.16-36.89L517.13 0L493.12 2.32L504.95-59.16L524.09-61.48L522-49.76L522-49.76Q527.68-61.48 540.44-61.48L540.44-61.48L540.44-61.48Q547.17-61.48 550.83-58L550.83-58L550.83-58Q554.48-54.52 554.48-47.39L554.48-47.39L554.48-47.39Q554.48-40.25 549.78-35.73L549.78-35.73L549.78-35.73Q545.08-31.20 537.08-31.20L537.08-31.20L537.08-31.20Q533.60-31.20 532.21-32.60ZM564.57-48.49L564.57-48.49L564.57-48.49Q568.52-54.06 574.49-57.77L574.49-57.77L574.49-57.77Q580.46-61.48 587.77-61.48L587.77-61.48L587.77-61.48Q595.08-61.48 598.56-59.16L598.56-59.16L621.30-61.48L613.41-16.94L613.41-16.94Q609.35 5.80 600.76 14.73L600.76 14.73L600.76 14.73Q592.53 23.20 576.52 23.20L576.52 23.20L576.52 23.20Q564.34 23.20 557.38 19.37L557.38 19.37L557.38 19.37Q550.42 15.54 550.42 9.16L550.42 9.16L550.42 9.16Q550.42 4.41 554.02 1.68L554.02 1.68L554.02 1.68Q557.61-1.04 563.18-1.04L563.18-1.04L563.18-1.04Q568.05-1.04 571.76 1.16L571.76 1.16L571.76 1.16Q573.97 2.32 575.01 3.94L575.01 3.94L575.01 3.94Q572.34 6.26 572.34 10.09L572.34 10.09L572.34 10.09Q572.34 15.08 576.98 15.08L576.98 15.08L576.98 15.08Q584.76 15.08 589.16-3.25L589.16-3.25L589.16-3.25Q590.44-8.24 591.48-13.22L591.48-13.22L591.48-13.22Q586.26-6.84 574.43-6.84L574.43-6.84L574.43-6.84Q566.20-6.84 561.44-10.79L561.44-10.79L561.44-10.79Q556.68-14.73 556.68-24.01L556.68-24.01L556.68-24.01Q556.68-29.81 558.66-36.37L558.66-36.37L558.66-36.37Q560.63-42.92 564.57-48.49ZM579.65-23.66L579.65-23.66L579.65-23.66Q579.65-15.78 583.71-15.78L583.71-15.78L583.71-15.78Q586.50-15.78 589.16-18.79L589.16-18.79L589.16-18.79Q591.25-21.23 592.06-24.82L592.06-24.82L597.98-54.64L597.98-54.64Q597.40-54.75 596.82-54.98L596.82-54.98L596.82-54.98Q595.66-55.45 594.15-55.45L594.15-55.45L594.15-55.45Q587.08-55.45 582.90-43.85L582.90-43.85L582.90-43.85Q579.65-34.80 579.65-23.66ZM672.80-19.60L672.80-19.60L672.80-19.60Q675.70-17.63 675.70-13.28L675.70-13.28L675.70-13.28Q675.70-8.93 673.50-6.15L673.50-6.15L673.50-6.15Q671.29-3.36 667.70-1.51L667.70-1.51L667.70-1.51Q660.27 2.32 652.27 2.32L652.27 2.32L652.27 2.32Q644.26 2.32 639.57 0.58L639.57 0.58L639.57 0.58Q634.87-1.16 631.74-4.41L631.74-4.41L631.74-4.41Q625.59-10.56 625.59-21.81L625.59-21.81L625.59-21.81Q625.59-39.32 635.10-50.00L635.10-50.00L635.10-50.00Q645.31-61.48 663.06-61.48L663.06-61.48L663.06-61.48Q674.08-61.48 679.53-56.84L679.53-56.84L679.53-56.84Q683.59-53.36 683.59-47.68L683.59-47.68L683.59-47.68Q683.59-27.26 648.32-27.26L648.32-27.26L648.32-27.26Q647.86-24.24 647.86-21.69L647.86-21.69L647.86-21.69Q647.86-16.36 650.24-14.33L650.24-14.33L650.24-14.33Q652.62-12.30 657.02-12.30L657.02-12.30L657.02-12.30Q661.43-12.30 666.13-14.33L666.13-14.33L666.13-14.33Q670.83-16.36 672.80-19.60ZM649.14-32.25L649.14-32.25L649.14-32.25Q657.37-32.25 662.13-37.35L662.13-37.35L662.13-37.35Q666.88-42.22 666.88-50.00L666.88-50.00L666.88-50.00Q666.88-52.66 665.90-54.11L665.90-54.11L665.90-54.11Q664.91-55.56 662.94-55.56L662.94-55.56L662.94-55.56Q660.97-55.56 659.29-54.81L659.29-54.81L659.29-54.81Q657.60-54.06 655.86-51.50L655.86-51.50L655.86-51.50Q651.57-45.70 649.14-32.25ZM723.84-32.60L723.84-32.60L723.84-32.60Q728.02-40.02 728.02-47.56L728.02-47.56L728.02-47.56Q728.02-52.55 724.42-52.55L724.42-52.55L724.42-52.55Q721.64-52.55 718.74-47.79L718.74-47.79L718.74-47.79Q715.72-43.04 714.79-36.89L714.79-36.89L708.76 0L684.75 2.32L696.58-59.16L715.72-61.48L713.63-49.76L713.63-49.76Q719.32-61.48 732.08-61.48L732.08-61.48L732.08-61.48Q738.80-61.48 742.46-58L742.46-58L742.46-58Q746.11-54.52 746.11-47.39L746.11-47.39L746.11-47.39Q746.11-40.25 741.41-35.73L741.41-35.73L741.41-35.73Q736.72-31.20 728.71-31.20L728.71-31.20L728.71-31.20Q725.23-31.20 723.84-32.60ZM815.13-8.70L815.13-8.70L815.13-8.70Q815.13-16.82 818.38-33.06L818.38-33.06L801.21-33.06L794.83 0L770.59 0L785.32-76.56L809.80-76.56L803.07-42.34L820.24-42.34L826.62-76.56L851.09-76.56L851.09-76.56Q849.47-67.98 847.38-58.35L847.38-58.35L843.44-39.44L843.44-39.44Q839.03-17.40 839.03-7.77L839.03-7.77L839.03-7.77Q839.03-3.83 840.30-1.62L840.30-1.62L840.30-1.62Q834.50 2.32 827.72 2.32L827.72 2.32L827.72 2.32Q820.93 2.32 818.03-0.93L818.03-0.93L818.03-0.93Q815.13-4.18 815.13-8.70ZM879.16 2.32L879.16 2.32L879.16 2.32Q853.64 2.32 853.64-21.69L853.64-21.69L853.64-21.69Q853.64-38.74 863.04-49.76L863.04-49.76L863.04-49.76Q873.02-61.48 890.30-61.48L890.30-61.48L890.30-61.48Q902.83-61.48 909.21-55.68L909.21-55.68L909.21-55.68Q915.59-49.88 915.59-37.70L915.59-37.70L915.59-37.70Q915.59-19.14 905.61-8.35L905.61-8.35L905.61-8.35Q895.87 2.32 879.16 2.32ZM882.18-48.14L882.18-48.14L882.18-48.14Q880.79-45.01 879.69-40.31L879.69-40.31L879.69-40.31Q878.58-35.61 877.19-28.19L877.19-28.19L877.19-28.19Q875.80-20.76 875.80-11.60L875.80-11.60L875.80-11.60Q875.80-8.58 876.79-6.61L876.79-6.61L876.79-6.61Q877.77-4.64 880.44-4.64L880.44-4.64L880.44-4.64Q883.11-4.64 884.79-5.92L884.79-5.92L884.79-5.92Q886.47-7.19 887.75-10.21L887.75-10.21L887.75-10.21Q890.07-15.54 891.92-25.46L891.92-25.46L891.92-25.46Q893.78-35.38 893.95-39.67L893.95-39.67L893.95-39.67Q894.13-43.96 894.13-47.15L894.13-47.15L894.13-47.15Q894.13-50.34 893.20-52.43L893.20-52.43L893.20-52.43Q892.27-54.52 889.66-54.52L889.66-54.52L889.66-54.52Q887.05-54.52 885.31-52.90L885.31-52.90L885.31-52.90Q883.57-51.27 882.18-48.14ZM959.67-4.87L959.67-4.87L959.67-4.87Q954.10 2.32 940.30 2.32L940.30 2.32L940.30 2.32Q933.10 2.32 927.88-2.03L927.88-2.03L927.88-2.03Q922.66-6.38 922.66-12.64L922.66-12.64L922.66-12.64Q922.66-16.12 923.01-17.86L923.01-17.86L930.78-59.16L954.33-61.48L945.86-16.70L945.86-16.70Q945.40-14.15 945.40-12.64L945.40-12.64L945.40-12.64Q945.40-5.92 949.46-5.92L949.46-5.92L949.46-5.92Q953.98-5.92 957.23-12.06L957.23-12.06L957.23-12.06Q958.28-14.04 958.74-16.59L958.74-16.59L966.98-59.16L989.83-61.48L981.24-16.24L981.24-16.24Q980.90-14.50 980.90-12.64L980.90-12.64L980.90-12.64Q980.90-10.79 981.94-8.76L981.94-8.76L981.94-8.76Q982.98-6.73 986.35-6.26L986.35-6.26L986.35-6.26Q985.65-3.48 983.22-1.62L983.22-1.62L983.22-1.62Q978.11 2.32 972.60 2.32L972.60 2.32L972.60 2.32Q967.09 2.32 963.84 0.35L963.84 0.35L963.84 0.35Q960.60-1.62 959.67-4.87ZM1030.78-40.72L1030.78-40.72L1030.78-40.72Q1032.40-45.01 1032.40-48.72L1032.40-48.72L1032.40-48.72Q1032.40-55.56 1026.83-55.56L1026.83-55.56L1026.83-55.56Q1023.93-55.56 1021.55-52.95L1021.55-52.95L1021.55-52.95Q1019.18-50.34 1019.18-47.10L1019.18-47.10L1019.18-47.10Q1019.18-44.78 1021.03-42.92L1021.03-42.92L1021.03-42.92Q1023.70-40.37 1030.54-36.19L1030.54-36.19L1030.54-36.19Q1037.39-32.02 1040.00-28.59L1040.00-28.59L1040.00-28.59Q1042.61-25.17 1042.61-20.47L1042.61-20.47L1042.61-20.47Q1042.61-15.78 1040.35-11.48L1040.35-11.48L1040.35-11.48Q1038.08-7.19 1034.02-4.18L1034.02-4.18L1034.02-4.18Q1025.32 2.32 1011.40 2.32L1011.40 2.32L1011.40 2.32Q1003.86 2.32 998.06-1.62L998.06-1.62L998.06-1.62Q992.26-5.45 992.26-9.98L992.26-9.98L992.26-9.98Q992.26-14.50 995.57-17.17L995.57-17.17L995.57-17.17Q998.88-19.84 1003.75-19.84L1003.75-19.84L1003.75-19.84Q1008.62-19.84 1011.64-17.98L1011.64-17.98L1011.64-17.98Q1010.13-14.15 1010.13-11.60L1010.13-11.60L1010.13-11.60Q1010.13-3.94 1016.62-3.94L1016.62-3.94L1016.62-3.94Q1019.41-3.94 1021.26-5.68L1021.26-5.68L1021.26-5.68Q1023.12-7.42 1023.12-10.44L1023.12-10.44L1023.12-10.44Q1023.12-16.36 1013.14-22.62L1013.14-22.62L1013.14-22.62Q1005.02-27.96 1003.17-30.04L1003.17-30.04L1003.17-30.04Q1000.04-33.76 1000.04-38.40L1000.04-38.40L1000.04-38.40Q1000.04-43.04 1002.24-47.44L1002.24-47.44L1002.24-47.44Q1004.44-51.85 1008.50-54.98L1008.50-54.98L1008.50-54.98Q1016.97-61.48 1031.70-61.48L1031.70-61.48L1031.70-61.48Q1039.24-61.48 1043.71-58.46L1043.71-58.46L1043.71-58.46Q1048.18-55.45 1048.18-50.34L1048.18-50.34L1048.18-50.34Q1048.18-45.24 1045.10-42.34L1045.10-42.34L1045.10-42.34Q1042.03-39.44 1036.46-39.44L1036.46-39.44L1036.46-39.44Q1032.63-39.44 1030.78-40.72ZM1099.45-19.60L1099.45-19.60L1099.45-19.60Q1102.35-17.63 1102.35-13.28L1102.35-13.28L1102.35-13.28Q1102.35-8.93 1100.14-6.15L1100.14-6.15L1100.14-6.15Q1097.94-3.36 1094.34-1.51L1094.34-1.51L1094.34-1.51Q1086.92 2.32 1078.92 2.32L1078.92 2.32L1078.92 2.32Q1070.91 2.32 1066.21 0.58L1066.21 0.58L1066.21 0.58Q1061.52-1.16 1058.38-4.41L1058.38-4.41L1058.38-4.41Q1052.24-10.56 1052.24-21.81L1052.24-21.81L1052.24-21.81Q1052.24-39.32 1061.75-50.00L1061.75-50.00L1061.75-50.00Q1071.96-61.48 1089.70-61.48L1089.70-61.48L1089.70-61.48Q1100.72-61.48 1106.18-56.84L1106.18-56.84L1106.18-56.84Q1110.24-53.36 1110.24-47.68L1110.24-47.68L1110.24-47.68Q1110.24-27.26 1074.97-27.26L1074.97-27.26L1074.97-27.26Q1074.51-24.24 1074.51-21.69L1074.51-21.69L1074.51-21.69Q1074.51-16.36 1076.89-14.33L1076.89-14.33L1076.89-14.33Q1079.26-12.30 1083.67-12.30L1083.67-12.30L1083.67-12.30Q1088.08-12.30 1092.78-14.33L1092.78-14.33L1092.78-14.33Q1097.48-16.36 1099.45-19.60ZM1075.78-32.25L1075.78-32.25L1075.78-32.25Q1084.02-32.25 1088.78-37.35L1088.78-37.35L1088.78-37.35Q1093.53-42.22 1093.53-50.00L1093.53-50.00L1093.53-50.00Q1093.53-52.66 1092.55-54.11L1092.55-54.11L1092.55-54.11Q1091.56-55.56 1089.59-55.56L1089.59-55.56L1089.59-55.56Q1087.62-55.56 1085.93-54.81L1085.93-54.81L1085.93-54.81Q1084.25-54.06 1082.51-51.50L1082.51-51.50L1082.51-51.50Q1078.22-45.70 1075.78-32.25Z" fill="#007bff"></path></g></g><style>text {
  font-size: 64px;
  font-family: Arial Black;
  dominant-baseline: central;
  text-anchor: middle;
}</style></svg>